<svg width="1280" height="640" xmlns="http://www.w3.org/2000/svg">
  <rect width="1280" height="640" fill="#0d1117"/>
  <defs>
    <pattern id="grid" width="40" height="40" patternUnits="userSpaceOnUse">
      <path d="M 40 0 L 0 0 0 40" fill="none" stroke="#161b22" stroke-width="1"/>
    </pattern>
  </defs>
  <rect width="1280" height="640" fill="url(#grid)"/>
  <!-- Orange accent bar -->
  <rect x="0" y="0" width="6" height="640" fill="#f0883e"/>
  <!-- Top label -->
  <text x="60" y="96" font-family="system-ui, sans-serif" font-size="20"
        font-weight="600" fill="#f0883e" letter-spacing="4">AGENTIC CLAUDE CODE SKILL</text>
  <!-- Project name -->
  <text x="60" y="205" font-family="system-ui, sans-serif" font-size="76"
        font-weight="800" fill="#ffffff">github-launch-agent</text>
  <!-- Tagline -->
  <text x="60" y="265" font-family="system-ui, sans-serif" font-size="30"
        fill="#8b949e">4 parallel agents. Full GitHub launch in 4 minutes.</text>
  <!-- 4 parallel agent boxes -->
  <rect x="60" y="300" width="270" height="38" rx="6" fill="#161b22"/>
  <rect x="60" y="300" width="4" height="38" rx="2" fill="#58a6ff"/>
  <text x="76" y="324" font-family="'Courier New', monospace" font-size="16"
        fill="#58a6ff">▶ Agent A  Research</text>
  <rect x="350" y="300" width="270" height="38" rx="6" fill="#161b22"/>
  <rect x="350" y="300" width="4" height="38" rx="2" fill="#3fb950"/>
  <text x="366" y="324" font-family="'Courier New', monospace" font-size="16"
        fill="#3fb950">▶ Agent B  Topics</text>
  <rect x="640" y="300" width="270" height="38" rx="6" fill="#161b22"/>
  <rect x="640" y="300" width="4" height="38" rx="2" fill="#f0883e"/>
  <text x="656" y="324" font-family="'Courier New', monospace" font-size="16"
        fill="#f0883e">▶ Agent C  SVG</text>
  <rect x="930" y="300" width="270" height="38" rx="6" fill="#161b22"/>
  <rect x="930" y="300" width="4" height="38" rx="2" fill="#d2a8ff"/>
  <text x="946" y="324" font-family="'Courier New', monospace" font-size="16"
        fill="#d2a8ff">▶ Agent D  Files</text>
  <!-- Simultaneity label -->
  <text x="60" y="366" font-family="system-ui, sans-serif" font-size="17"
        fill="#484f58">⚡ all four running simultaneously</text>
  <!-- Install command block -->
  <rect x="60" y="393" width="1020" height="64" rx="8" fill="#161b22"/>
  <rect x="60" y="393" width="4" height="64" rx="2" fill="#f0883e"/>
  <text x="86" y="430" font-family="'Courier New', monospace" font-size="23"
        fill="#f0883e">$</text>
  <text x="114" y="430" font-family="'Courier New', monospace" font-size="23"
        fill="#e6edf3">/plugin install github:Rishiidev/github-launch-agent</text>
  <!-- Feature pills -->
  <rect x="60" y="490" width="156" height="34" rx="17" fill="#161b22"/>
  <text x="138" y="512" font-family="system-ui, sans-serif" font-size="15"
        fill="#8b949e" text-anchor="middle">4x faster</text>
  <rect x="232" y="490" width="190" height="34" rx="17" fill="#161b22"/>
  <text x="327" y="512" font-family="system-ui, sans-serif" font-size="15"
        fill="#8b949e" text-anchor="middle">parallel agents</text>
  <rect x="438" y="490" width="184" height="34" rx="17" fill="#161b22"/>
  <text x="530" y="512" font-family="system-ui, sans-serif" font-size="15"
        fill="#8b949e" text-anchor="middle">GitHub Pages</text>
  <rect x="638" y="490" width="210" height="34" rx="17" fill="#161b22"/>
  <text x="743" y="512" font-family="system-ui, sans-serif" font-size="15"
        fill="#8b949e" text-anchor="middle">competitor research</text>
  <rect x="864" y="490" width="200" height="34" rx="17" fill="#161b22"/>
  <text x="964" y="512" font-family="system-ui, sans-serif" font-size="15"
        fill="#8b949e" text-anchor="middle">7-day calendar</text>
  <!-- Username -->
  <text x="1220" y="610" font-family="system-ui, sans-serif" font-size="19"
        fill="#484f58" text-anchor="end">github.com/Rishiidev</text>
</svg>
